<svg xmlns="http://www.w3.org/2000/svg" version="1.1" xmlns:xlink="http://www.w3.org/1999/xlink" width="1000" height="1000"><style>
    #light-icon {
      display: inline;
    }
    #dark-icon {
      display: none;
    }

    @media (prefers-color-scheme: dark) {
      #light-icon {
        display: none;
      }
      #dark-icon {
        display: inline;
      }
    }
  </style><g id="light-icon"><svg xmlns="http://www.w3.org/2000/svg" version="1.1" xmlns:xlink="http://www.w3.org/1999/xlink" width="1000" height="1000"><g><g transform="matrix(3.90625,0,0,3.90625,0,0)"><svg xmlns="http://www.w3.org/2000/svg" version="1.1" xmlns:xlink="http://www.w3.org/1999/xlink" width="256" height="256"><svg xmlns="http://www.w3.org/2000/svg" xmlns:xlink="http://www.w3.org/1999/xlink" width="256" zoomAndPan="magnify" viewBox="0 0 192 191.999996" height="256" preserveAspectRatio="xMidYMid meet" version="1.2"><defs><clipPath id="a079efda40"><path d="M 18.207031 14.648438 L 92 14.648438 L 92 28 L 18.207031 28 Z M 18.207031 14.648438 "></path></clipPath><clipPath id="a306234471"><path d="M 18.207031 32 L 92 32 L 92 177 L 18.207031 177 Z M 18.207031 32 "></path></clipPath><clipPath id="44d51e941f"><path d="M 99 14.648438 L 173.457031 14.648438 L 173.457031 29 L 99 29 Z M 99 14.648438 "></path></clipPath><clipPath id="32c0772344"><path d="M 99 32 L 173.457031 32 L 173.457031 177.398438 L 99 177.398438 Z M 99 32 "></path></clipPath><clipPath id="65afe94788"><path d="M 103.730469 61.679688 L 108.234375 61.679688 L 108.234375 74.25 L 103.730469 74.25 Z M 103.730469 61.679688 "></path></clipPath></defs><g id="f204e91c89"><g clip-rule="nonzero" clip-path="url(#a079efda40)"><path style=" stroke:none;fill-rule:nonzero;fill:#000000;fill-opacity:1;" d="M 18.304688 27.804688 L 91.84375 27.226562 L 91.84375 14.675781 L 18.203125 15.257812 L 18.304688 27.804688 "></path></g><g clip-rule="nonzero" clip-path="url(#a306234471)"><path style=" stroke:none;fill-rule:nonzero;fill:#000000;fill-opacity:1;" d="M 91.796875 38.820312 L 91.746094 32.355469 L 18.203125 32.933594 L 18.304688 45.484375 L 79.246094 45.003906 L 79.246094 176.976562 L 91.796875 176.976562 L 91.796875 44.902344 L 91.84375 44.902344 L 91.796875 38.820312 "></path></g><g clip-rule="nonzero" clip-path="url(#44d51e941f)"><path style=" stroke:none;fill-rule:nonzero;fill:#2e2a72;fill-opacity:1;" d="M 173.4375 15.535156 L 99.800781 14.648438 L 99.746094 27.199219 L 173.285156 28.085938 L 173.4375 15.535156 "></path></g><g clip-rule="nonzero" clip-path="url(#32c0772344)"><path style=" stroke:none;fill-rule:nonzero;fill:#2e2a72;fill-opacity:1;" d="M 99.746094 38.796875 L 99.675781 44.878906 L 99.722656 44.878906 L 99.175781 176.949219 L 111.726562 177.003906 L 112.273438 45.03125 L 173.214844 45.765625 L 173.363281 33.214844 L 99.828125 32.328125 L 99.746094 38.796875 "></path></g><g clip-rule="nonzero" clip-path="url(#65afe94788)"><path style=" stroke:none;fill-rule:nonzero;fill:#2e2a72;fill-opacity:1;" d="M 103.730469 61.679688 L 108.234375 61.679688 L 108.234375 74.253906 L 103.730469 74.253906 Z M 103.730469 61.679688 "></path></g></g></svg></svg></g></g></svg></g><g id="dark-icon"><svg xmlns="http://www.w3.org/2000/svg" version="1.1" xmlns:xlink="http://www.w3.org/1999/xlink" width="1000" height="1000"><g><g transform="matrix(3.3333333333333335,0,0,3.3333333333333335,0,0)"><svg xmlns="http://www.w3.org/2000/svg" version="1.1" xmlns:xlink="http://www.w3.org/1999/xlink" width="300" height="300"><svg xmlns="http://www.w3.org/2000/svg" xmlns:xlink="http://www.w3.org/1999/xlink" width="300" zoomAndPan="magnify" viewBox="0 0 224.87999 225" height="300" preserveAspectRatio="xMidYMid meet" version="1.2"><defs><clipPath id="f1be261628"><path d="M 26.242188 22.546875 L 108 22.546875 L 108 38 L 26.242188 38 Z M 26.242188 22.546875 "></path></clipPath><clipPath id="44a1aa85f6"><path d="M 26.242188 42 L 108 42 L 108 202.453125 L 26.242188 202.453125 Z M 26.242188 42 "></path></clipPath><clipPath id="750eb3ee8f"><path d="M 116 22.546875 L 198.648438 22.546875 L 198.648438 38 L 116 38 Z M 116 22.546875 "></path></clipPath><clipPath id="2b2841581c"><path d="M 115 42 L 198.648438 42 L 198.648438 202.453125 L 115 202.453125 Z M 115 42 "></path></clipPath><clipPath id="606be31a94"><path d="M 120.804688 74.550781 L 125.785156 74.550781 L 125.785156 88.453125 L 120.804688 88.453125 Z M 120.804688 74.550781 "></path></clipPath></defs><g id="d808e81075"><g clip-rule="nonzero" clip-path="url(#f1be261628)"><path style=" stroke:none;fill-rule:nonzero;fill:#ffffff;fill-opacity:1;" d="M 26.351562 37.128906 L 107.839844 36.488281 L 107.839844 22.578125 L 26.242188 23.222656 L 26.351562 37.128906 "></path></g><g clip-rule="nonzero" clip-path="url(#44a1aa85f6)"><path style=" stroke:none;fill-rule:nonzero;fill:#ffffff;fill-opacity:1;" d="M 107.785156 49.335938 L 107.730469 42.167969 L 26.242188 42.8125 L 26.351562 56.71875 L 93.878906 56.1875 L 93.878906 202.421875 L 107.785156 202.421875 L 107.785156 56.074219 L 107.839844 56.074219 L 107.785156 49.335938 "></path></g><g clip-rule="nonzero" clip-path="url(#750eb3ee8f)"><path style=" stroke:none;fill-rule:nonzero;fill:#dad7e9;fill-opacity:1;" d="M 198.25 23.53125 L 116.65625 22.550781 L 116.597656 36.457031 L 198.082031 37.4375 L 198.25 23.53125 "></path></g><g clip-rule="nonzero" clip-path="url(#2b2841581c)"><path style=" stroke:none;fill-rule:nonzero;fill:#dad7e9;fill-opacity:1;" d="M 116.597656 49.308594 L 116.519531 56.046875 L 116.570312 56.046875 L 115.960938 202.390625 L 129.871094 202.449219 L 130.476562 56.214844 L 198.003906 57.027344 L 198.167969 43.125 L 116.683594 42.140625 L 116.597656 49.308594 "></path></g><g clip-rule="nonzero" clip-path="url(#606be31a94)"><path style=" stroke:none;fill-rule:nonzero;fill:#dad7e9;fill-opacity:1;" d="M 120.804688 74.550781 L 125.785156 74.550781 L 125.785156 88.457031 L 120.804688 88.457031 Z M 120.804688 74.550781 "></path></g></g></svg></svg></g></g></svg></g></svg>