<svg xmlns="http://www.w3.org/2000/svg" xmlns:xlink="http://www.w3.org/1999/xlink" width="300" zoomAndPan="magnify" viewBox="0 0 224.87999 60" height="80" preserveAspectRatio="xMidYMid meet" version="1.2"><defs><clipPath id="eef7fe4993"><path d="M 17.542969 10.105469 L 36 10.105469 L 36 14 L 17.542969 14 Z M 17.542969 10.105469 "/></clipPath><clipPath id="1785f88ef1"><path d="M 17.542969 14 L 36 14 L 36 50.582031 L 17.542969 50.582031 Z M 17.542969 14 "/></clipPath><clipPath id="aa0df4d0f4"><path d="M 37 10.105469 L 56.523438 10.105469 L 56.523438 14 L 37 14 Z M 37 10.105469 "/></clipPath><clipPath id="7d0b10a093"><path d="M 37 14 L 56.523438 14 L 56.523438 50.582031 L 37 50.582031 Z M 37 14 "/></clipPath></defs><g id="a2f6f78b6d"><g style="fill:#ffffff;fill-opacity:1;"><g transform="translate(22.121821, 50.20873)"><path style="stroke:none" d=""/></g></g><g style="fill:#ffffff;fill-opacity:1;"><g transform="translate(34.570446, 50.20873)"><path style="stroke:none" d=""/></g></g><g style="fill:#ffffff;fill-opacity:1;"><g transform="translate(47.021862, 50.20873)"><path style="stroke:none" d="M 10.640625 -23.625 C 11.503906 -25.132812 12.5 -26.320312 13.625 -27.1875 C 14.75 -28.050781 16.035156 -28.484375 17.484375 -28.484375 C 18.742188 -28.484375 19.769531 -28.1875 20.5625 -27.59375 L 20.015625 -21.453125 C 19.929688 -21.054688 19.785156 -20.785156 19.578125 -20.640625 C 19.367188 -20.492188 19.085938 -20.421875 18.734375 -20.421875 C 18.585938 -20.421875 18.394531 -20.429688 18.15625 -20.453125 C 17.925781 -20.472656 17.6875 -20.492188 17.4375 -20.515625 C 17.1875 -20.546875 16.929688 -20.570312 16.671875 -20.59375 C 16.410156 -20.625 16.171875 -20.640625 15.953125 -20.640625 C 14.734375 -20.640625 13.757812 -20.316406 13.03125 -19.671875 C 12.300781 -19.023438 11.6875 -18.125 11.1875 -16.96875 L 11.1875 0 L 2.828125 0 L 2.828125 -27.9375 L 7.78125 -27.9375 C 8.195312 -27.9375 8.546875 -27.898438 8.828125 -27.828125 C 9.109375 -27.765625 9.34375 -27.65625 9.53125 -27.5 C 9.71875 -27.34375 9.859375 -27.140625 9.953125 -26.890625 C 10.054688 -26.640625 10.144531 -26.332031 10.21875 -25.96875 Z M 10.640625 -23.625 "/></g></g><g style="fill:#ffffff;fill-opacity:1;"><g transform="translate(67.580962, 50.20873)"><path style="stroke:none" d="M 27.890625 -27.9375 L 27.890625 0 L 22.71875 0 C 21.675781 0 20.992188 -0.46875 20.671875 -1.40625 L 20.1875 -3.015625 C 19.644531 -2.492188 19.085938 -2.019531 18.515625 -1.59375 C 17.941406 -1.175781 17.328125 -0.816406 16.671875 -0.515625 C 16.015625 -0.222656 15.300781 0.00390625 14.53125 0.171875 C 13.769531 0.347656 12.941406 0.4375 12.046875 0.4375 C 10.515625 0.4375 9.160156 0.171875 7.984375 -0.359375 C 6.804688 -0.890625 5.8125 -1.628906 5 -2.578125 C 4.195312 -3.535156 3.585938 -4.660156 3.171875 -5.953125 C 2.765625 -7.242188 2.5625 -8.664062 2.5625 -10.21875 L 2.5625 -27.9375 L 10.90625 -27.9375 L 10.90625 -10.21875 C 10.90625 -8.832031 11.21875 -7.757812 11.84375 -7 C 12.476562 -6.25 13.40625 -5.875 14.625 -5.875 C 15.539062 -5.875 16.398438 -6.066406 17.203125 -6.453125 C 18.003906 -6.835938 18.78125 -7.363281 19.53125 -8.03125 L 19.53125 -27.9375 Z M 27.890625 -27.9375 "/></g></g><g style="fill:#ffffff;fill-opacity:1;"><g transform="translate(98.29836, 50.20873)"><path style="stroke:none" d="M 20.59375 -21.828125 C 20.375 -21.484375 20.140625 -21.238281 19.890625 -21.09375 C 19.648438 -20.945312 19.34375 -20.875 18.96875 -20.875 C 18.570312 -20.875 18.175781 -20.957031 17.78125 -21.125 C 17.382812 -21.300781 16.957031 -21.488281 16.5 -21.6875 C 16.039062 -21.882812 15.523438 -22.066406 14.953125 -22.234375 C 14.378906 -22.410156 13.722656 -22.5 12.984375 -22.5 C 11.921875 -22.5 11.109375 -22.296875 10.546875 -21.890625 C 9.984375 -21.484375 9.703125 -20.921875 9.703125 -20.203125 C 9.703125 -19.679688 9.882812 -19.25 10.25 -18.90625 C 10.625 -18.570312 11.113281 -18.273438 11.71875 -18.015625 C 12.332031 -17.753906 13.023438 -17.503906 13.796875 -17.265625 C 14.566406 -17.035156 15.351562 -16.773438 16.15625 -16.484375 C 16.96875 -16.203125 17.757812 -15.867188 18.53125 -15.484375 C 19.3125 -15.097656 20.003906 -14.617188 20.609375 -14.046875 C 21.222656 -13.484375 21.710938 -12.796875 22.078125 -11.984375 C 22.453125 -11.179688 22.640625 -10.210938 22.640625 -9.078125 C 22.640625 -7.691406 22.382812 -6.414062 21.875 -5.25 C 21.375 -4.082031 20.625 -3.078125 19.625 -2.234375 C 18.632812 -1.390625 17.40625 -0.734375 15.9375 -0.265625 C 14.46875 0.203125 12.785156 0.4375 10.890625 0.4375 C 9.929688 0.4375 8.976562 0.34375 8.03125 0.15625 C 7.082031 -0.0195312 6.160156 -0.257812 5.265625 -0.5625 C 4.378906 -0.875 3.554688 -1.238281 2.796875 -1.65625 C 2.046875 -2.082031 1.398438 -2.535156 0.859375 -3.015625 L 2.796875 -6.09375 C 3.015625 -6.445312 3.289062 -6.726562 3.625 -6.9375 C 3.957031 -7.144531 4.382812 -7.25 4.90625 -7.25 C 5.382812 -7.25 5.816406 -7.140625 6.203125 -6.921875 C 6.597656 -6.710938 7.019531 -6.476562 7.46875 -6.21875 C 7.914062 -5.96875 8.4375 -5.734375 9.03125 -5.515625 C 9.632812 -5.304688 10.394531 -5.203125 11.3125 -5.203125 C 11.957031 -5.203125 12.503906 -5.269531 12.953125 -5.40625 C 13.410156 -5.539062 13.769531 -5.722656 14.03125 -5.953125 C 14.300781 -6.191406 14.5 -6.453125 14.625 -6.734375 C 14.75 -7.023438 14.8125 -7.320312 14.8125 -7.625 C 14.8125 -8.175781 14.625 -8.628906 14.25 -8.984375 C 13.875 -9.347656 13.378906 -9.660156 12.765625 -9.921875 C 12.160156 -10.179688 11.46875 -10.425781 10.6875 -10.65625 C 9.90625 -10.882812 9.109375 -11.140625 8.296875 -11.421875 C 7.492188 -11.710938 6.703125 -12.054688 5.921875 -12.453125 C 5.140625 -12.859375 4.441406 -13.367188 3.828125 -13.984375 C 3.210938 -14.609375 2.71875 -15.367188 2.34375 -16.265625 C 1.96875 -17.171875 1.78125 -18.257812 1.78125 -19.53125 C 1.78125 -20.71875 2.007812 -21.84375 2.46875 -22.90625 C 2.925781 -23.976562 3.613281 -24.921875 4.53125 -25.734375 C 5.445312 -26.546875 6.59375 -27.1875 7.96875 -27.65625 C 9.351562 -28.132812 10.972656 -28.375 12.828125 -28.375 C 13.828125 -28.375 14.800781 -28.28125 15.75 -28.09375 C 16.695312 -27.914062 17.582031 -27.664062 18.40625 -27.34375 C 19.226562 -27.019531 19.976562 -26.640625 20.65625 -26.203125 C 21.34375 -25.765625 21.945312 -25.285156 22.46875 -24.765625 Z M 20.59375 -21.828125 "/></g></g><g style="fill:#ffffff;fill-opacity:1;"><g transform="translate(122.30643, 50.20873)"><path style="stroke:none" d="M 12.828125 0.4375 C 11.492188 0.4375 10.316406 0.242188 9.296875 -0.140625 C 8.285156 -0.535156 7.4375 -1.085938 6.75 -1.796875 C 6.0625 -2.503906 5.535156 -3.359375 5.171875 -4.359375 C 4.816406 -5.367188 4.640625 -6.492188 4.640625 -7.734375 L 4.640625 -22.171875 L 2.265625 -22.171875 C 1.828125 -22.171875 1.457031 -22.3125 1.15625 -22.59375 C 0.851562 -22.875 0.703125 -23.28125 0.703125 -23.8125 L 0.703125 -27.078125 L 5.140625 -27.9375 L 6.796875 -34.765625 C 7.003906 -35.617188 7.613281 -36.046875 8.625 -36.046875 L 12.984375 -36.046875 L 12.984375 -27.890625 L 19.90625 -27.890625 L 19.90625 -22.171875 L 12.984375 -22.171875 L 12.984375 -8.296875 C 12.984375 -7.648438 13.140625 -7.113281 13.453125 -6.6875 C 13.773438 -6.269531 14.226562 -6.0625 14.8125 -6.0625 C 15.125 -6.0625 15.378906 -6.09375 15.578125 -6.15625 C 15.785156 -6.21875 15.96875 -6.289062 16.125 -6.375 C 16.28125 -6.457031 16.425781 -6.53125 16.5625 -6.59375 C 16.695312 -6.65625 16.851562 -6.6875 17.03125 -6.6875 C 17.28125 -6.6875 17.476562 -6.625 17.625 -6.5 C 17.78125 -6.382812 17.941406 -6.203125 18.109375 -5.953125 L 20.640625 -2 C 19.554688 -1.1875 18.34375 -0.578125 17 -0.171875 C 15.65625 0.234375 14.265625 0.4375 12.828125 0.4375 Z M 12.828125 0.4375 "/></g></g><g style="fill:#ffffff;fill-opacity:1;"><g transform="translate(142.730807, 50.20873)"><path style="stroke:none" d="M 20.203125 -17.328125 C 20.203125 -17.992188 20.117188 -18.640625 19.953125 -19.265625 C 19.785156 -19.890625 19.503906 -20.445312 19.109375 -20.9375 C 18.722656 -21.4375 18.21875 -21.835938 17.59375 -22.140625 C 16.96875 -22.453125 16.207031 -22.609375 15.3125 -22.609375 C 13.726562 -22.609375 12.484375 -22.15625 11.578125 -21.25 C 10.679688 -20.34375 10.09375 -19.035156 9.8125 -17.328125 Z M 9.703125 -12.46875 C 9.972656 -10.132812 10.679688 -8.441406 11.828125 -7.390625 C 12.972656 -6.335938 14.457031 -5.8125 16.28125 -5.8125 C 17.25 -5.8125 18.082031 -5.925781 18.78125 -6.15625 C 19.476562 -6.394531 20.097656 -6.660156 20.640625 -6.953125 C 21.191406 -7.242188 21.695312 -7.503906 22.15625 -7.734375 C 22.613281 -7.960938 23.097656 -8.078125 23.609375 -8.078125 C 24.265625 -8.078125 24.765625 -7.835938 25.109375 -7.359375 L 27.53125 -4.359375 C 26.675781 -3.378906 25.75 -2.578125 24.75 -1.953125 C 23.75 -1.335938 22.722656 -0.851562 21.671875 -0.5 C 20.617188 -0.144531 19.566406 0.0976562 18.515625 0.234375 C 17.472656 0.367188 16.472656 0.4375 15.515625 0.4375 C 13.554688 0.4375 11.71875 0.117188 10 -0.515625 C 8.289062 -1.160156 6.789062 -2.109375 5.5 -3.359375 C 4.21875 -4.617188 3.203125 -6.179688 2.453125 -8.046875 C 1.710938 -9.921875 1.34375 -12.097656 1.34375 -14.578125 C 1.34375 -16.441406 1.660156 -18.207031 2.296875 -19.875 C 2.941406 -21.550781 3.859375 -23.015625 5.046875 -24.265625 C 6.242188 -25.523438 7.691406 -26.523438 9.390625 -27.265625 C 11.085938 -28.003906 13.003906 -28.375 15.140625 -28.375 C 16.992188 -28.375 18.6875 -28.085938 20.21875 -27.515625 C 21.757812 -26.941406 23.082031 -26.101562 24.1875 -25 C 25.289062 -23.90625 26.148438 -22.5625 26.765625 -20.96875 C 27.390625 -19.382812 27.703125 -17.585938 27.703125 -15.578125 C 27.703125 -14.941406 27.671875 -14.425781 27.609375 -14.03125 C 27.554688 -13.644531 27.457031 -13.332031 27.3125 -13.09375 C 27.175781 -12.863281 26.984375 -12.703125 26.734375 -12.609375 C 26.492188 -12.515625 26.1875 -12.46875 25.8125 -12.46875 Z M 9.703125 -12.46875 "/></g></g><g style="fill:#ffffff;fill-opacity:1;"><g transform="translate(171.777609, 50.20873)"><path style="stroke:none" d="M 19.78125 -20.453125 C 19.144531 -21.148438 18.457031 -21.640625 17.71875 -21.921875 C 16.988281 -22.203125 16.21875 -22.34375 15.40625 -22.34375 C 14.632812 -22.34375 13.925781 -22.1875 13.28125 -21.875 C 12.632812 -21.570312 12.070312 -21.082031 11.59375 -20.40625 C 11.125 -19.738281 10.753906 -18.863281 10.484375 -17.78125 C 10.210938 -16.707031 10.078125 -15.40625 10.078125 -13.875 C 10.078125 -12.40625 10.179688 -11.164062 10.390625 -10.15625 C 10.609375 -9.15625 10.910156 -8.34375 11.296875 -7.71875 C 11.691406 -7.101562 12.15625 -6.660156 12.6875 -6.390625 C 13.226562 -6.117188 13.832031 -5.984375 14.5 -5.984375 C 15.101562 -5.984375 15.648438 -6.039062 16.140625 -6.15625 C 16.640625 -6.269531 17.097656 -6.4375 17.515625 -6.65625 C 17.929688 -6.875 18.320312 -7.144531 18.6875 -7.46875 C 19.050781 -7.800781 19.414062 -8.1875 19.78125 -8.625 Z M 28.125 -40.34375 L 28.125 0 L 22.953125 0 C 21.910156 0 21.226562 -0.46875 20.90625 -1.40625 L 20.265625 -3.53125 C 19.703125 -2.9375 19.113281 -2.394531 18.5 -1.90625 C 17.894531 -1.425781 17.238281 -1.007812 16.53125 -0.65625 C 15.820312 -0.3125 15.054688 -0.046875 14.234375 0.140625 C 13.421875 0.335938 12.539062 0.4375 11.59375 0.4375 C 10.132812 0.4375 8.785156 0.113281 7.546875 -0.53125 C 6.304688 -1.1875 5.234375 -2.125 4.328125 -3.34375 C 3.429688 -4.5625 2.726562 -6.054688 2.21875 -7.828125 C 1.707031 -9.597656 1.453125 -11.613281 1.453125 -13.875 C 1.453125 -15.957031 1.738281 -17.890625 2.3125 -19.671875 C 2.882812 -21.460938 3.695312 -23.007812 4.75 -24.3125 C 5.800781 -25.613281 7.0625 -26.632812 8.53125 -27.375 C 10.007812 -28.113281 11.640625 -28.484375 13.421875 -28.484375 C 14.867188 -28.484375 16.085938 -28.273438 17.078125 -27.859375 C 18.066406 -27.441406 18.96875 -26.882812 19.78125 -26.1875 L 19.78125 -40.34375 Z M 28.125 -40.34375 "/></g></g><g clip-rule="nonzero" clip-path="url(#eef7fe4993)"><path style=" stroke:none;fill-rule:nonzero;fill:#ffffff;fill-opacity:1;" d="M 17.566406 13.382812 L 35.886719 13.238281 L 35.886719 10.109375 L 17.542969 10.253906 L 17.566406 13.382812 "/></g><g clip-rule="nonzero" clip-path="url(#1785f88ef1)"><path style=" stroke:none;fill-rule:nonzero;fill:#ffffff;fill-opacity:1;" d="M 35.875 16.125 L 35.863281 14.515625 L 17.542969 14.660156 L 17.566406 17.785156 L 32.75 17.664062 L 32.75 50.539062 L 35.875 50.539062 L 35.875 17.640625 L 35.886719 17.640625 L 35.875 16.125 "/></g><g clip-rule="nonzero" clip-path="url(#aa0df4d0f4)"><path style=" stroke:none;fill-rule:nonzero;fill:#dad7e9;fill-opacity:1;" d="M 56.210938 10.324219 L 37.867188 10.105469 L 37.855469 13.230469 L 56.171875 13.449219 L 56.210938 10.324219 "/></g><g clip-rule="nonzero" clip-path="url(#7d0b10a093)"><path style=" stroke:none;fill-rule:nonzero;fill:#dad7e9;fill-opacity:1;" d="M 37.855469 16.121094 L 37.835938 17.632812 L 37.851562 17.632812 L 37.710938 50.53125 L 40.839844 50.546875 L 40.976562 17.671875 L 56.15625 17.855469 L 56.191406 14.730469 L 37.875 14.507812 L 37.855469 16.121094 "/></g></g></svg>