<svg xmlns="http://www.w3.org/2000/svg" xmlns:xlink="http://www.w3.org/1999/xlink" width="256" zoomAndPan="magnify" viewBox="0 0 192 191.999996" height="256" preserveAspectRatio="xMidYMid meet" version="1.2"><defs><clipPath id="a079efda40"><path d="M 18.207031 14.648438 L 92 14.648438 L 92 28 L 18.207031 28 Z M 18.207031 14.648438 "/></clipPath><clipPath id="a306234471"><path d="M 18.207031 32 L 92 32 L 92 177 L 18.207031 177 Z M 18.207031 32 "/></clipPath><clipPath id="44d51e941f"><path d="M 99 14.648438 L 173.457031 14.648438 L 173.457031 29 L 99 29 Z M 99 14.648438 "/></clipPath><clipPath id="32c0772344"><path d="M 99 32 L 173.457031 32 L 173.457031 177.398438 L 99 177.398438 Z M 99 32 "/></clipPath><clipPath id="65afe94788"><path d="M 103.730469 61.679688 L 108.234375 61.679688 L 108.234375 74.25 L 103.730469 74.25 Z M 103.730469 61.679688 "/></clipPath></defs><g id="f204e91c89"><g clip-rule="nonzero" clip-path="url(#a079efda40)"><path style=" stroke:none;fill-rule:nonzero;fill:#000000;fill-opacity:1;" d="M 18.304688 27.804688 L 91.84375 27.226562 L 91.84375 14.675781 L 18.203125 15.257812 L 18.304688 27.804688 "/></g><g clip-rule="nonzero" clip-path="url(#a306234471)"><path style=" stroke:none;fill-rule:nonzero;fill:#000000;fill-opacity:1;" d="M 91.796875 38.820312 L 91.746094 32.355469 L 18.203125 32.933594 L 18.304688 45.484375 L 79.246094 45.003906 L 79.246094 176.976562 L 91.796875 176.976562 L 91.796875 44.902344 L 91.84375 44.902344 L 91.796875 38.820312 "/></g><g clip-rule="nonzero" clip-path="url(#44d51e941f)"><path style=" stroke:none;fill-rule:nonzero;fill:#2e2a72;fill-opacity:1;" d="M 173.4375 15.535156 L 99.800781 14.648438 L 99.746094 27.199219 L 173.285156 28.085938 L 173.4375 15.535156 "/></g><g clip-rule="nonzero" clip-path="url(#32c0772344)"><path style=" stroke:none;fill-rule:nonzero;fill:#2e2a72;fill-opacity:1;" d="M 99.746094 38.796875 L 99.675781 44.878906 L 99.722656 44.878906 L 99.175781 176.949219 L 111.726562 177.003906 L 112.273438 45.03125 L 173.214844 45.765625 L 173.363281 33.214844 L 99.828125 32.328125 L 99.746094 38.796875 "/></g><g clip-rule="nonzero" clip-path="url(#65afe94788)"><path style=" stroke:none;fill-rule:nonzero;fill:#2e2a72;fill-opacity:1;" d="M 103.730469 61.679688 L 108.234375 61.679688 L 108.234375 74.253906 L 103.730469 74.253906 Z M 103.730469 61.679688 "/></g></g></svg>