<svg xmlns="http://www.w3.org/2000/svg" xmlns:xlink="http://www.w3.org/1999/xlink" width="600" zoomAndPan="magnify" viewBox="0 0 450 112.499997" height="150" preserveAspectRatio="xMidYMid meet" version="1.2"><defs><clipPath id="09142444b7"><path d="M 45.941406 18.40625 L 81 18.40625 L 81 25 L 45.941406 25 Z M 45.941406 18.40625 "/></clipPath><clipPath id="a0157e8649"><path d="M 45.941406 26 L 81 26 L 81 94.570312 L 45.941406 94.570312 Z M 45.941406 26 "/></clipPath><clipPath id="173b123e2d"><path d="M 84 18.40625 L 119 18.40625 L 119 25 L 84 25 Z M 84 18.40625 "/></clipPath><clipPath id="93c234f886"><path d="M 83 26 L 119 26 L 119 94.570312 L 83 94.570312 Z M 83 26 "/></clipPath></defs><g id="7d0affc1eb"><g style="fill:#000000;fill-opacity:1;"><g transform="translate(54.592703, 94.18478)"><path style="stroke:none" d=""/></g></g><g style="fill:#000000;fill-opacity:1;"><g transform="translate(78.113942, 94.18478)"><path style="stroke:none" d=""/></g></g><g style="fill:#000000;fill-opacity:1;"><g transform="translate(101.640453, 94.18478)"><path style="stroke:none" d="M 20.109375 -44.65625 C 21.742188 -47.5 23.617188 -49.734375 25.734375 -51.359375 C 27.859375 -52.992188 30.296875 -53.8125 33.046875 -53.8125 C 35.421875 -53.8125 37.351562 -53.253906 38.84375 -52.140625 L 37.828125 -40.53125 C 37.660156 -39.78125 37.378906 -39.269531 36.984375 -39 C 36.597656 -38.726562 36.066406 -38.59375 35.390625 -38.59375 C 35.117188 -38.59375 34.757812 -38.609375 34.3125 -38.640625 C 33.875 -38.671875 33.414062 -38.710938 32.9375 -38.765625 C 32.46875 -38.816406 31.984375 -38.867188 31.484375 -38.921875 C 30.992188 -38.972656 30.546875 -39 30.140625 -39 C 27.828125 -39 25.984375 -38.382812 24.609375 -37.15625 C 23.242188 -35.9375 22.082031 -34.242188 21.125 -32.078125 L 21.125 0 L 5.34375 0 L 5.34375 -52.796875 L 14.71875 -52.796875 C 15.5 -52.796875 16.148438 -52.726562 16.671875 -52.59375 C 17.203125 -52.457031 17.644531 -52.242188 18 -51.953125 C 18.351562 -51.671875 18.625 -51.289062 18.8125 -50.8125 C 19 -50.332031 19.160156 -49.753906 19.296875 -49.078125 Z M 20.109375 -44.65625 "/></g></g><g style="fill:#000000;fill-opacity:1;"><g transform="translate(140.486148, 94.18478)"><path style="stroke:none" d="M 52.703125 -52.796875 L 52.703125 0 L 42.921875 0 C 40.953125 0 39.660156 -0.878906 39.046875 -2.640625 L 38.140625 -5.703125 C 37.117188 -4.710938 36.0625 -3.816406 34.96875 -3.015625 C 33.882812 -2.222656 32.722656 -1.546875 31.484375 -0.984375 C 30.242188 -0.429688 28.898438 0.00390625 27.453125 0.328125 C 26.015625 0.648438 24.453125 0.8125 22.765625 0.8125 C 19.878906 0.8125 17.320312 0.3125 15.09375 -0.6875 C 12.875 -1.6875 11 -3.085938 9.46875 -4.890625 C 7.9375 -6.691406 6.78125 -8.8125 6 -11.25 C 5.226562 -13.695312 4.84375 -16.378906 4.84375 -19.296875 L 4.84375 -52.796875 L 20.625 -52.796875 L 20.625 -19.296875 C 20.625 -16.679688 21.21875 -14.660156 22.40625 -13.234375 C 23.59375 -11.804688 25.335938 -11.09375 27.640625 -11.09375 C 29.378906 -11.09375 31.003906 -11.457031 32.515625 -12.1875 C 34.023438 -12.914062 35.488281 -13.910156 36.90625 -15.171875 L 36.90625 -52.796875 Z M 52.703125 -52.796875 "/></g></g><g style="fill:#000000;fill-opacity:1;"><g transform="translate(198.525588, 94.18478)"><path style="stroke:none" d="M 38.890625 -41.234375 C 38.484375 -40.585938 38.050781 -40.128906 37.59375 -39.859375 C 37.132812 -39.585938 36.550781 -39.453125 35.84375 -39.453125 C 35.09375 -39.453125 34.34375 -39.613281 33.59375 -39.9375 C 32.851562 -40.257812 32.050781 -40.609375 31.1875 -40.984375 C 30.320312 -41.359375 29.34375 -41.707031 28.25 -42.03125 C 27.164062 -42.351562 25.929688 -42.515625 24.546875 -42.515625 C 22.535156 -42.515625 20.992188 -42.128906 19.921875 -41.359375 C 18.859375 -40.597656 18.328125 -39.539062 18.328125 -38.1875 C 18.328125 -37.195312 18.675781 -36.378906 19.375 -35.734375 C 20.070312 -35.097656 20.992188 -34.53125 22.140625 -34.03125 C 23.296875 -33.539062 24.601562 -33.070312 26.0625 -32.625 C 27.519531 -32.1875 29.015625 -31.695312 30.546875 -31.15625 C 32.078125 -30.613281 33.570312 -29.976562 35.03125 -29.25 C 36.488281 -28.519531 37.796875 -27.617188 38.953125 -26.546875 C 40.109375 -25.484375 41.03125 -24.1875 41.71875 -22.65625 C 42.414062 -21.125 42.765625 -19.289062 42.765625 -17.15625 C 42.765625 -14.539062 42.289062 -12.128906 41.34375 -9.921875 C 40.394531 -7.722656 38.976562 -5.820312 37.09375 -4.21875 C 35.207031 -2.625 32.878906 -1.382812 30.109375 -0.5 C 27.347656 0.375 24.164062 0.8125 20.5625 0.8125 C 18.769531 0.8125 16.972656 0.640625 15.171875 0.296875 C 13.367188 -0.0351562 11.628906 -0.488281 9.953125 -1.0625 C 8.273438 -1.644531 6.722656 -2.332031 5.296875 -3.125 C 3.867188 -3.925781 2.644531 -4.785156 1.625 -5.703125 L 5.296875 -11.5 C 5.703125 -12.1875 6.21875 -12.722656 6.84375 -13.109375 C 7.476562 -13.503906 8.285156 -13.703125 9.265625 -13.703125 C 10.179688 -13.703125 11.003906 -13.492188 11.734375 -13.078125 C 12.460938 -12.671875 13.25 -12.226562 14.09375 -11.75 C 14.945312 -11.28125 15.941406 -10.84375 17.078125 -10.4375 C 18.210938 -10.03125 19.648438 -9.828125 21.390625 -9.828125 C 22.609375 -9.828125 23.640625 -9.953125 24.484375 -10.203125 C 25.335938 -10.460938 26.019531 -10.8125 26.53125 -11.25 C 27.039062 -11.6875 27.410156 -12.175781 27.640625 -12.71875 C 27.878906 -13.269531 28 -13.832031 28 -14.40625 C 28 -15.457031 27.640625 -16.320312 26.921875 -17 C 26.210938 -17.6875 25.28125 -18.273438 24.125 -18.765625 C 22.976562 -19.253906 21.664062 -19.707031 20.1875 -20.125 C 18.707031 -20.550781 17.203125 -21.035156 15.671875 -21.578125 C 14.148438 -22.128906 12.648438 -22.785156 11.171875 -23.546875 C 9.691406 -24.304688 8.375 -25.269531 7.21875 -26.4375 C 6.070312 -27.613281 5.140625 -29.050781 4.421875 -30.75 C 3.710938 -32.445312 3.359375 -34.5 3.359375 -36.90625 C 3.359375 -39.144531 3.789062 -41.273438 4.65625 -43.296875 C 5.519531 -45.316406 6.816406 -47.085938 8.546875 -48.609375 C 10.285156 -50.140625 12.457031 -51.351562 15.0625 -52.25 C 17.675781 -53.15625 20.734375 -53.609375 24.234375 -53.609375 C 26.140625 -53.609375 27.984375 -53.4375 29.765625 -53.09375 C 31.546875 -52.757812 33.210938 -52.285156 34.765625 -51.671875 C 36.328125 -51.066406 37.753906 -50.347656 39.046875 -49.515625 C 40.335938 -48.679688 41.476562 -47.773438 42.46875 -46.796875 Z M 38.890625 -41.234375 "/></g></g><g style="fill:#000000;fill-opacity:1;"><g transform="translate(243.887992, 94.18478)"><path style="stroke:none" d="M 24.234375 0.8125 C 21.722656 0.8125 19.507812 0.445312 17.59375 -0.28125 C 15.675781 -1.007812 14.0625 -2.039062 12.75 -3.375 C 11.445312 -4.71875 10.453125 -6.335938 9.765625 -8.234375 C 9.085938 -10.140625 8.75 -12.265625 8.75 -14.609375 L 8.75 -41.90625 L 4.28125 -41.90625 C 3.46875 -41.90625 2.769531 -42.164062 2.1875 -42.6875 C 1.613281 -43.21875 1.328125 -43.992188 1.328125 -45.015625 L 1.328125 -51.171875 L 9.71875 -52.796875 L 12.828125 -65.671875 C 13.234375 -67.304688 14.390625 -68.125 16.296875 -68.125 L 24.546875 -68.125 L 24.546875 -52.703125 L 37.625 -52.703125 L 37.625 -41.90625 L 24.546875 -41.90625 L 24.546875 -15.6875 C 24.546875 -14.457031 24.84375 -13.441406 25.4375 -12.640625 C 26.03125 -11.847656 26.882812 -11.453125 28 -11.453125 C 28.582031 -11.453125 29.066406 -11.507812 29.453125 -11.625 C 29.847656 -11.75 30.1875 -11.882812 30.46875 -12.03125 C 30.757812 -12.1875 31.03125 -12.320312 31.28125 -12.4375 C 31.539062 -12.5625 31.835938 -12.625 32.171875 -12.625 C 32.648438 -12.625 33.03125 -12.515625 33.3125 -12.296875 C 33.601562 -12.078125 33.90625 -11.726562 34.21875 -11.25 L 39 -3.765625 C 36.96875 -2.234375 34.675781 -1.085938 32.125 -0.328125 C 29.582031 0.429688 26.953125 0.8125 24.234375 0.8125 Z M 24.234375 0.8125 "/></g></g><g style="fill:#000000;fill-opacity:1;"><g transform="translate(282.479131, 94.18478)"><path style="stroke:none" d="M 38.1875 -32.734375 C 38.1875 -33.992188 38.023438 -35.21875 37.703125 -36.40625 C 37.378906 -37.59375 36.851562 -38.648438 36.125 -39.578125 C 35.394531 -40.515625 34.4375 -41.269531 33.25 -41.84375 C 32.0625 -42.425781 30.617188 -42.71875 28.921875 -42.71875 C 25.929688 -42.71875 23.585938 -41.859375 21.890625 -40.140625 C 20.191406 -38.429688 19.070312 -35.960938 18.53125 -32.734375 Z M 18.328125 -23.578125 C 18.835938 -19.160156 20.175781 -15.957031 22.34375 -13.96875 C 24.519531 -11.988281 27.320312 -11 30.75 -11 C 32.582031 -11 34.160156 -11.21875 35.484375 -11.65625 C 36.804688 -12.101562 37.984375 -12.597656 39.015625 -13.140625 C 40.054688 -13.679688 41.007812 -14.171875 41.875 -14.609375 C 42.738281 -15.054688 43.644531 -15.28125 44.59375 -15.28125 C 45.851562 -15.28125 46.804688 -14.820312 47.453125 -13.90625 L 52.03125 -8.25 C 50.40625 -6.382812 48.648438 -4.863281 46.765625 -3.6875 C 44.878906 -2.519531 42.941406 -1.601562 40.953125 -0.9375 C 38.972656 -0.28125 36.988281 0.171875 35 0.421875 C 33.019531 0.679688 31.128906 0.8125 29.328125 0.8125 C 25.628906 0.8125 22.15625 0.210938 18.90625 -0.984375 C 15.664062 -2.191406 12.832031 -3.984375 10.40625 -6.359375 C 7.976562 -8.734375 6.0625 -11.6875 4.65625 -15.21875 C 3.25 -18.75 2.546875 -22.859375 2.546875 -27.546875 C 2.546875 -31.078125 3.144531 -34.421875 4.34375 -37.578125 C 5.550781 -40.734375 7.285156 -43.5 9.546875 -45.875 C 11.804688 -48.25 14.539062 -50.128906 17.75 -51.515625 C 20.957031 -52.910156 24.578125 -53.609375 28.609375 -53.609375 C 32.109375 -53.609375 35.304688 -53.066406 38.203125 -51.984375 C 41.109375 -50.898438 43.601562 -49.320312 45.6875 -47.25 C 47.78125 -45.175781 49.410156 -42.632812 50.578125 -39.625 C 51.753906 -36.625 52.34375 -33.222656 52.34375 -29.421875 C 52.34375 -28.234375 52.289062 -27.265625 52.1875 -26.515625 C 52.082031 -25.773438 51.894531 -25.179688 51.625 -24.734375 C 51.351562 -24.296875 50.988281 -23.992188 50.53125 -23.828125 C 50.070312 -23.660156 49.488281 -23.578125 48.78125 -23.578125 Z M 18.328125 -23.578125 "/></g></g><g style="fill:#000000;fill-opacity:1;"><g transform="translate(337.362042, 94.18478)"><path style="stroke:none" d="M 37.375 -38.640625 C 36.1875 -39.960938 34.894531 -40.882812 33.5 -41.40625 C 32.101562 -41.9375 30.644531 -42.203125 29.125 -42.203125 C 27.664062 -42.203125 26.320312 -41.914062 25.09375 -41.34375 C 23.875 -40.769531 22.8125 -39.84375 21.90625 -38.5625 C 21.007812 -37.289062 20.304688 -35.632812 19.796875 -33.59375 C 19.296875 -31.5625 19.046875 -29.101562 19.046875 -26.21875 C 19.046875 -23.4375 19.25 -21.09375 19.65625 -19.1875 C 20.0625 -17.289062 20.628906 -15.753906 21.359375 -14.578125 C 22.085938 -13.410156 22.960938 -12.570312 23.984375 -12.0625 C 25.003906 -11.550781 26.140625 -11.296875 27.390625 -11.296875 C 28.546875 -11.296875 29.585938 -11.40625 30.515625 -11.625 C 31.453125 -11.851562 32.3125 -12.171875 33.09375 -12.578125 C 33.875 -12.984375 34.613281 -13.5 35.3125 -14.125 C 36.007812 -14.757812 36.695312 -15.484375 37.375 -16.296875 Z M 53.15625 -76.21875 L 53.15625 0 L 43.375 0 C 41.40625 0 40.117188 -0.878906 39.515625 -2.640625 L 38.28125 -6.671875 C 37.226562 -5.546875 36.125 -4.523438 34.96875 -3.609375 C 33.820312 -2.691406 32.578125 -1.898438 31.234375 -1.234375 C 29.890625 -0.578125 28.445312 -0.0703125 26.90625 0.28125 C 25.363281 0.632812 23.691406 0.8125 21.890625 0.8125 C 19.140625 0.8125 16.59375 0.203125 14.25 -1.015625 C 11.914062 -2.234375 9.898438 -4 8.203125 -6.3125 C 6.503906 -8.625 5.171875 -11.453125 4.203125 -14.796875 C 3.234375 -18.140625 2.75 -21.945312 2.75 -26.21875 C 2.75 -30.15625 3.289062 -33.8125 4.375 -37.1875 C 5.46875 -40.570312 7.003906 -43.492188 8.984375 -45.953125 C 10.972656 -48.410156 13.359375 -50.332031 16.140625 -51.71875 C 18.921875 -53.113281 21.992188 -53.8125 25.359375 -53.8125 C 28.109375 -53.8125 30.414062 -53.421875 32.28125 -52.640625 C 34.144531 -51.859375 35.84375 -50.804688 37.375 -49.484375 L 37.375 -76.21875 Z M 53.15625 -76.21875 "/></g></g><g clip-rule="nonzero" clip-path="url(#09142444b7)"><path style=" stroke:none;fill-rule:nonzero;fill:#000000;fill-opacity:1;" d="M 45.984375 24.582031 L 80.484375 24.308594 L 80.484375 18.421875 L 45.9375 18.695312 L 45.984375 24.582031 "/></g><g clip-rule="nonzero" clip-path="url(#a0157e8649)"><path style=" stroke:none;fill-rule:nonzero;fill:#000000;fill-opacity:1;" d="M 80.460938 29.75 L 80.4375 26.714844 L 45.9375 26.988281 L 45.984375 32.875 L 74.574219 32.648438 L 74.574219 94.554688 L 80.460938 94.554688 L 80.460938 32.601562 L 80.484375 32.601562 L 80.460938 29.75 "/></g><g clip-rule="nonzero" clip-path="url(#173b123e2d)"><path style=" stroke:none;fill-rule:nonzero;fill:#2e2a72;fill-opacity:1;" d="M 118.757812 18.824219 L 84.214844 18.410156 L 84.191406 24.296875 L 118.6875 24.710938 L 118.757812 18.824219 "/></g><g clip-rule="nonzero" clip-path="url(#93c234f886)"><path style=" stroke:none;fill-rule:nonzero;fill:#2e2a72;fill-opacity:1;" d="M 84.191406 29.734375 L 84.15625 32.589844 L 84.179688 32.589844 L 83.921875 94.542969 L 89.808594 94.566406 L 90.066406 32.660156 L 118.652344 33.003906 L 118.722656 27.117188 L 84.226562 26.703125 L 84.191406 29.734375 "/></g></g></svg>