<svg xmlns="http://www.w3.org/2000/svg" xmlns:xlink="http://www.w3.org/1999/xlink" width="300" zoomAndPan="magnify" viewBox="0 0 224.87999 225" height="300" preserveAspectRatio="xMidYMid meet" version="1.2"><defs><clipPath id="3a8b894803"><path d="M 26.242188 22.546875 L 108 22.546875 L 108 38 L 26.242188 38 Z M 26.242188 22.546875 "/></clipPath><clipPath id="0a0964fb85"><path d="M 26.242188 42 L 108 42 L 108 202.453125 L 26.242188 202.453125 Z M 26.242188 42 "/></clipPath><clipPath id="a5f64a4185"><path d="M 116 22.546875 L 198.648438 22.546875 L 198.648438 38 L 116 38 Z M 116 22.546875 "/></clipPath><clipPath id="d4455a7e0e"><path d="M 115 42 L 198.648438 42 L 198.648438 202.453125 L 115 202.453125 Z M 115 42 "/></clipPath><clipPath id="76c5afce16"><path d="M 120.804688 74.550781 L 125.785156 74.550781 L 125.785156 88.453125 L 120.804688 88.453125 Z M 120.804688 74.550781 "/></clipPath></defs><g id="822bdbd357"><g clip-rule="nonzero" clip-path="url(#3a8b894803)"><path style=" stroke:none;fill-rule:nonzero;fill:#000000;fill-opacity:1;" d="M 26.351562 37.128906 L 107.839844 36.488281 L 107.839844 22.578125 L 26.242188 23.222656 L 26.351562 37.128906 "/></g><g clip-rule="nonzero" clip-path="url(#0a0964fb85)"><path style=" stroke:none;fill-rule:nonzero;fill:#000000;fill-opacity:1;" d="M 107.785156 49.335938 L 107.730469 42.167969 L 26.242188 42.8125 L 26.351562 56.71875 L 93.878906 56.1875 L 93.878906 202.421875 L 107.785156 202.421875 L 107.785156 56.074219 L 107.839844 56.074219 L 107.785156 49.335938 "/></g><g clip-rule="nonzero" clip-path="url(#a5f64a4185)"><path style=" stroke:none;fill-rule:nonzero;fill:#2e2a72;fill-opacity:1;" d="M 198.25 23.53125 L 116.65625 22.550781 L 116.597656 36.457031 L 198.082031 37.4375 L 198.25 23.53125 "/></g><g clip-rule="nonzero" clip-path="url(#d4455a7e0e)"><path style=" stroke:none;fill-rule:nonzero;fill:#2e2a72;fill-opacity:1;" d="M 116.597656 49.308594 L 116.519531 56.046875 L 116.570312 56.046875 L 115.960938 202.390625 L 129.871094 202.449219 L 130.476562 56.214844 L 198.003906 57.027344 L 198.167969 43.125 L 116.683594 42.140625 L 116.597656 49.308594 "/></g><g clip-rule="nonzero" clip-path="url(#76c5afce16)"><path style=" stroke:none;fill-rule:nonzero;fill:#2e2a72;fill-opacity:1;" d="M 120.804688 74.550781 L 125.785156 74.550781 L 125.785156 88.457031 L 120.804688 88.457031 Z M 120.804688 74.550781 "/></g></g></svg>